<?xml version="1.0" encoding="UTF-8"?>
<svg xmlns="http://www.w3.org/2000/svg" xmlns:xlink="http://www.w3.org/1999/xlink" viewBox="0 0 50 50" version="1.1" fill="#1d80f0"><g id="surface1" fill="#1d80f0"><path style=" " d="M 25 1 C 16.429688 1 9.242188 7.03125 7.4375 15.0625 C 7.621094 15.042969 7.8125 15 8 15 C 8.511719 15 9.003906 15.105469 9.46875 15.25 C 11.164063 8.238281 17.472656 3 25 3 C 32.527344 3 38.835938 8.238281 40.53125 15.25 C 40.996094 15.105469 41.488281 15 42 15 C 42.1875 15 42.378906 15.042969 42.5625 15.0625 C 40.757813 7.03125 33.566406 1 25 1 Z M 8 17 C 6.347656 17 5 18.347656 5 20 L 5 35 C 5 36.652344 6.347656 38 8 38 C 9.652344 38 11 36.652344 11 35 L 11 20 C 11 18.347656 9.652344 17 8 17 Z M 42 17 C 40.347656 17 39 18.347656 39 20 L 39 35 C 39 36.652344 40.347656 38 42 38 C 43.652344 38 45 36.652344 45 35 L 45 20 C 45 18.347656 43.652344 17 42 17 Z M 3 20.125 C 1.195313 21.574219 0 24.292969 0 27.5 C 0 30.707031 1.195313 33.425781 3 34.875 Z M 47 20.125 L 47 34.875 C 48.804688 33.425781 50 30.707031 50 27.5 C 50 24.292969 48.804688 21.574219 47 20.125 Z " fill="#1d80f0"/></g></svg>
